<?xml version="1.0" encoding="utf-8"?>
<!-- Generator: Adobe Illustrator 23.1.1, SVG Export Plug-In . SVG Version: 6.00 Build 0)  -->
<svg version="1.1" id="Слой_1" xmlns="http://www.w3.org/2000/svg" xmlns:xlink="http://www.w3.org/1999/xlink" x="0px" y="0px"
	 viewBox="0 0 300 90" style="enable-background:new 0 0 300 90;" xml:space="preserve">
<style type="text/css">
	.st0{fill:url(#SVGID_1_);}
	.st1{fill:url(#SVGID_2_);}
	.st2{fill:url(#SVGID_3_);}
	.st3{fill:url(#SVGID_4_);}
	.st4{fill:url(#SVGID_5_);}
	.st5{fill:url(#SVGID_6_);}
	.st6{fill:url(#SVGID_7_);}
	.st7{fill:url(#SVGID_8_);}
	.st8{fill:url(#SVGID_9_);}
	.st9{fill:url(#SVGID_10_);}
	.st10{fill:url(#SVGID_11_);}
	.st11{fill:url(#SVGID_12_);}
</style>
<g>
	<g>
		<linearGradient id="SVGID_1_" gradientUnits="userSpaceOnUse" x1="82.5489" y1="39.7556" x2="213.3249" y2="39.7556">
			<stop  offset="0" style="stop-color:#822451"/>
			<stop  offset="1" style="stop-color:#C5332F"/>
		</linearGradient>
		<path class="st0" d="M106.7,51.9c-1.9-1.2-3.3-2.8-4.3-4.9c-1-2.1-1.5-4.4-1.5-6.9c0-2.6,0.6-5,1.7-7.2c1.1-2.2,2.6-4,4.5-5.2
			c1.9-1.3,4-1.9,6.2-1.9c2.1,0,4,0.3,5.6,0.9c1.6,0.6,2.8,1.4,3.6,2.3c0.5,0.6,0.7,1.3,0.8,2.2c0.1,0.9,0.2,2.2,0.2,3.8h-0.8
			c-0.5-2.6-1.4-4.5-2.8-5.7c-1.4-1.2-3.2-1.9-5.4-1.9c-2.9,0-5.2,1-7,3c-1.8,2-2.6,5.3-2.6,9.7c0,2.1,0.3,4.1,1,5.9
			c0.7,1.8,1.7,3.3,3.2,4.4c1.4,1.1,3.2,1.7,5.4,1.7c1.9,0,3.6-0.5,5.1-1.4c1.5-0.9,2.7-2.3,3.9-4.2l0.8,0.6
			c-1.2,2.4-2.7,4.1-4.5,5.1s-3.9,1.5-6.5,1.5C110.8,53.7,108.6,53.1,106.7,51.9z"/>
		<linearGradient id="SVGID_2_" gradientUnits="userSpaceOnUse" x1="81.1722" y1="39.8603" x2="212.183" y2="39.8603">
			<stop  offset="0" style="stop-color:#822451"/>
			<stop  offset="1" style="stop-color:#C5332F"/>
		</linearGradient>
		<path class="st1" d="M146.7,52.1c-1.3-0.7-2.3-2.1-3-4.1l-1-2.6h-11.2l-3.2,7.6h-1.8l11.2-26.4h1.2l8.8,21.4
			c0.7,1.5,1.3,2.6,1.9,3.2c0.6,0.6,1.4,0.9,2.5,1v0.8c-0.5,0.1-1,0.2-1.6,0.2C149.2,53.1,148,52.8,146.7,52.1z M132.1,43.8h9.8
			l-4.8-11.6L132.1,43.8z"/>
		<linearGradient id="SVGID_3_" gradientUnits="userSpaceOnUse" x1="82.9006" y1="39.7556" x2="213.7953" y2="39.7556">
			<stop  offset="0" style="stop-color:#822451"/>
			<stop  offset="1" style="stop-color:#C5332F"/>
		</linearGradient>
		<path class="st2" d="M155.3,31.4c0-1.4-0.2-2.4-0.6-3c-0.4-0.7-1.1-1-2.2-1h-0.8v-0.8h15.9c2.3,0,3.4,1.1,3.4,3.2v3h-0.8
			c0-3.1-1.7-4.6-5-4.6h-6.3v10.6h9v1.6h-9v12.6h-3.6L155.3,31.4L155.3,31.4z"/>
		<linearGradient id="SVGID_4_" gradientUnits="userSpaceOnUse" x1="82.5128" y1="39.7556" x2="212.535" y2="39.7556">
			<stop  offset="0" style="stop-color:#822451"/>
			<stop  offset="1" style="stop-color:#C5332F"/>
		</linearGradient>
		<path class="st3" d="M176.3,31.4c0-1.4-0.2-2.4-0.6-3c-0.4-0.7-1.1-1-2.2-1h-0.8v-0.8h15.9c2.3,0,3.4,1.1,3.4,3.2v3h-0.8
			c0-3.1-1.7-4.6-5-4.6h-6.3v10.6h9v1.6h-9v12.6h-3.6L176.3,31.4L176.3,31.4z"/>
		<linearGradient id="SVGID_5_" gradientUnits="userSpaceOnUse" x1="82.4628" y1="39.7537" x2="213.1867" y2="39.7537">
			<stop  offset="0" style="stop-color:#822451"/>
			<stop  offset="1" style="stop-color:#C5332F"/>
		</linearGradient>
		<path class="st4" d="M197.3,31.4c0-1.4-0.2-2.4-0.6-3c-0.4-0.7-1.1-1-2.2-1h-0.8v-0.8h17c2.3,0,3.4,1.1,3.4,3.2v3h-0.8
			c0-3.1-1.7-4.6-5-4.6h-7.4v10.4h10.8v1.6h-10.8v11.2h7c1.8,0,3.3-0.3,4.3-1c1-0.7,1.9-1.8,2.5-3.4l0.8,0.2l-1.4,3.8
			c-0.5,1.3-1.5,2-3,2h-13.8L197.3,31.4L197.3,31.4z"/>
	</g>
	<g>
		<linearGradient id="SVGID_6_" gradientUnits="userSpaceOnUse" x1="82.4203" y1="74.3775" x2="216.2814" y2="74.3775">
			<stop  offset="0" style="stop-color:#822451"/>
			<stop  offset="1" style="stop-color:#C5332F"/>
		</linearGradient>
		<path class="st5" d="M115.8,86.5c-1.1-0.8-2.2-2.3-3.5-4.5l-4-6.8h-2.8v12.2h-3.6V65.8c0-1.4-0.2-2.4-0.6-3c-0.4-0.7-1.1-1-2.2-1
			h-0.8V61h10.4c2.5,0,4.8,0.5,6.9,1.5c2.1,1,3.1,2.9,3.1,5.7c0,3.5-2.1,5.8-6.4,6.8l4.2,7c1,1.6,1.9,2.8,2.7,3.5
			c0.8,0.7,1.7,1,2.7,1.1v0.8c-0.2,0.1-0.6,0.2-1,0.3c-0.4,0.1-0.9,0.1-1.4,0.1C118.1,87.8,116.9,87.3,115.8,86.5z M111.2,73.2
			c1-0.4,1.8-1,2.5-1.9s1-1.9,1-3.1c0-1.3-0.3-2.4-1-3.3s-1.5-1.5-2.5-1.9c-1-0.4-1.9-0.6-2.7-0.6c-0.9,0-1.9,0.1-3,0.4v10.6
			c1.1,0.3,2.1,0.4,3,0.4C109.4,73.8,110.3,73.6,111.2,73.2z"/>
		<linearGradient id="SVGID_7_" gradientUnits="userSpaceOnUse" x1="82.3474" y1="74.2823" x2="216.7928" y2="74.2823">
			<stop  offset="0" style="stop-color:#822451"/>
			<stop  offset="1" style="stop-color:#C5332F"/>
		</linearGradient>
		<path class="st6" d="M142.5,86.5c-1.3-0.7-2.3-2.1-3-4.1l-1-2.6h-11.2l-3.2,7.6h-1.8L133.5,61h1.2l8.8,21.4
			c0.7,1.5,1.3,2.6,1.9,3.2c0.6,0.6,1.4,0.9,2.5,1v0.8c-0.5,0.1-1,0.2-1.6,0.2C145,87.6,143.8,87.2,142.5,86.5z M127.9,78.2h9.8
			l-4.8-11.6L127.9,78.2z"/>
		<linearGradient id="SVGID_8_" gradientUnits="userSpaceOnUse" x1="82.4833" y1="74.1776" x2="216.7903" y2="74.1776">
			<stop  offset="0" style="stop-color:#822451"/>
			<stop  offset="1" style="stop-color:#C5332F"/>
		</linearGradient>
		<path class="st7" d="M147.8,86.6l16.6-24h-9.6c-3.3,0-5,1.5-5,4.6H149v-3c0-2.1,1.1-3.2,3.4-3.2h17.4l-17,24.8h16.4v1.6h-21.4
			L147.8,86.6L147.8,86.6z"/>
		<linearGradient id="SVGID_9_" gradientUnits="userSpaceOnUse" x1="82.6522" y1="74.1776" x2="216.987" y2="74.1776">
			<stop  offset="0" style="stop-color:#822451"/>
			<stop  offset="1" style="stop-color:#C5332F"/>
		</linearGradient>
		<path class="st8" d="M171.4,86.6l16.6-24h-9.6c-3.3,0-5,1.5-5,4.6h-0.8v-3c0-2.1,1.1-3.2,3.4-3.2h17.4l-17,24.8h16.4v1.6h-21.4
			L171.4,86.6L171.4,86.6z"/>
		<linearGradient id="SVGID_10_" gradientUnits="userSpaceOnUse" x1="82.5678" y1="73.5815" x2="216.4223" y2="73.5815">
			<stop  offset="0" style="stop-color:#822451"/>
			<stop  offset="1" style="stop-color:#C5332F"/>
		</linearGradient>
		<path class="st9" d="M215.3,79.5c-3.6,5.2-8.2,8.6-13.2,8.6c-4,0-5.8-3.5-5.8-6.7c0-8.7,5.8-15.3,8.8-17.1
			c1.8-3.5,5.3-5.2,8.7-5.2c4.3,0,5.8,3.7,5.8,7C219.7,69.3,218.9,74.3,215.3,79.5z M212,60.6c-2.7,0-4.6,1.7-5.2,3
			c1.4-0.9,3.4-1.6,4.7-1.6c1.1,0,1.6,0.1,1.6,0.6c0,0.2-0.1,0.3-0.3,0.3c-0.4,0-0.7-0.2-1.3-0.2c-1.5,0-3.9,0.8-5.2,2.1
			c-0.1,0.4,0,0.6-0.1,1.1c-0.2,0.5-0.8,0.6-1.2,0.6c-0.4,0-0.4-0.5-0.3-0.8c-2,2.2-4.9,5.9-4.9,13.5c0,3.3,1.1,6.6,4.9,6.6
			c2.8,0,5.4-1.9,7.7-5c2.6-3.6,4.2-9.7,4.2-13.9C216.6,64.6,216,60.6,212,60.6z"/>
	</g>
	<g>
		<g>
			<linearGradient id="SVGID_11_" gradientUnits="userSpaceOnUse" x1="153.295" y1="37.2484" x2="181.0281" y2="33.9038">
				<stop  offset="0" style="stop-color:#822451"/>
				<stop  offset="1" style="stop-color:#C5332F"/>
			</linearGradient>
			<path class="st10" d="M166.1,1.9v1.6h-83c-0.7,0-1.2,0.5-1.2,1.2v79.7c0,0.7,0.5,1.2,1.2,1.2h19.2v1.6H81.5
				c-0.7,0-1.2-0.6-1.2-1.2v-83c0-0.7,0.5-1.2,1.2-1.2H166.1z"/>
		</g>
	</g>
	<linearGradient id="SVGID_12_" gradientUnits="userSpaceOnUse" x1="82.5618" y1="5.0956" x2="212.1599" y2="5.0956">
		<stop  offset="0" style="stop-color:#822451"/>
		<stop  offset="1" style="stop-color:#C5332F"/>
	</linearGradient>
	<rect x="164.5" y="1.9" class="st11" width="1.6" height="6.3"/>
</g>
</svg>
