<?xml version="1.0" encoding="utf-8"?>
<!-- Generator: Adobe Illustrator 23.1.1, SVG Export Plug-In . SVG Version: 6.00 Build 0)  -->
<svg version="1.1" id="Слой_1" xmlns="http://www.w3.org/2000/svg" xmlns:xlink="http://www.w3.org/1999/xlink" x="0px" y="0px"
	 viewBox="0 0 300 90" style="enable-background:new 0 0 300 90;" xml:space="preserve">
<style type="text/css">
	.st0{fill:url(#SVGID_1_);}
	.st1{fill:url(#SVGID_2_);}
	.st2{fill:url(#SVGID_3_);}
	.st3{fill:url(#SVGID_4_);}
	.st4{fill:url(#SVGID_5_);}
	.st5{fill:url(#SVGID_6_);}
	.st6{fill:url(#SVGID_7_);}
	.st7{fill:url(#SVGID_8_);}
	.st8{fill:url(#SVGID_9_);}
	.st9{fill:url(#SVGID_10_);}
	.st10{fill:url(#SVGID_11_);}
	.st11{fill:url(#SVGID_12_);}
	.st12{fill:url(#SVGID_13_);}
	.st13{fill:url(#SVGID_14_);}
	.st14{fill:url(#SVGID_15_);}
	.st15{fill:url(#SVGID_16_);}
	.st16{fill:url(#SVGID_17_);}
	.st17{fill:url(#SVGID_18_);}
	.st18{fill:url(#SVGID_19_);}
	.st19{fill:url(#SVGID_20_);}
	.st20{fill:url(#SVGID_21_);}
	.st21{fill:url(#SVGID_22_);}
	.st22{fill:url(#SVGID_23_);}
	.st23{fill:url(#SVGID_24_);}
	.st24{fill:url(#SVGID_25_);}
	.st25{fill:url(#SVGID_26_);}
	.st26{fill:url(#SVGID_27_);}
	.st27{fill:url(#SVGID_28_);}
	.st28{fill:url(#SVGID_29_);}
</style>
<g>
	<linearGradient id="SVGID_1_" gradientUnits="userSpaceOnUse" x1="66.1758" y1="19.1134" x2="234.4943" y2="19.1134">
		<stop  offset="0" style="stop-color:#822451"/>
		<stop  offset="0.9803" style="stop-color:#C5332F"/>
	</linearGradient>
	<path class="st0" d="M128.8,19.1c0,3-0.6,5.9-2,8.6c-2.3,4.3-6,6.8-10.7,7.8c-1.6,0.3-3.3,0.5-4.9,0.4c-3.9-0.2-7.3-1.4-10.3-4
		c-3-2.6-4.6-5.9-5.2-9.7c-0.6-4.2-0.2-8.2,1.9-12c1.3-2.4,3.2-4.2,5.5-5.6c3.4-2,7-2.6,10.8-2.3c4.4,0.4,8.1,2.2,11,5.5
		c2.1,2.4,3.3,5.3,3.6,8.5C128.7,17.3,128.8,18.2,128.8,19.1z M120.2,19.2c0-2.6-0.7-4.8-2.5-6.6c-3.4-3.4-9.4-2.8-12.1,1.2
		c-1.3,2-1.7,4.2-1.4,6.6c0.4,3.2,2,5.5,5,6.8c2.7,1.1,6.3,0.5,8.4-1.6C119.5,23.9,120.2,21.6,120.2,19.2z"/>
	<linearGradient id="SVGID_2_" gradientUnits="userSpaceOnUse" x1="65.5521" y1="18.9894" x2="232.0289" y2="18.9894">
		<stop  offset="0" style="stop-color:#822451"/>
		<stop  offset="1" style="stop-color:#C5332F"/>
	</linearGradient>
	<path class="st1" d="M163,2.8c4.7,0,9.3-0.1,13.9,0c2.9,0.1,5.4,1.1,7.4,3.2c2.7,3,3.6,7.7,1.3,11.1c-0.3,0.4-0.6,0.9-1,1.3
		c1.2,0.7,2.3,1.7,2.9,3.1c0.8,1.7,0.9,3.4,0.6,5.2c-0.2,1.7-0.8,3.3-1.8,4.8c-1.5,2-3.5,3.2-5.9,3.6c-0.8,0.1-1.6,0.1-2.3,0.2
		c-4.7,0-9.5,0-14.2,0c-0.3,0-0.5,0-0.9,0C163,24.4,163,13.6,163,2.8z M171.1,27.8c2.1,0,4.2,0,6.2,0c1.5,0,2.2-0.5,2.6-1.9
		c0.5-1.6-0.5-3.6-2.5-3.5c-1.1,0.1-2.3,0-3.4,0c-1,0-1.9,0-2.9,0C171.1,24.3,171.1,26,171.1,27.8z M171.1,15.4c1.8,0,3.6,0,5.3,0
		c1.1,0,2.1-0.9,2.2-2.3c0.1-1-0.6-2.5-1.7-2.6c-1.9-0.1-3.9,0-5.8,0C171.1,12,171.1,13.7,171.1,15.4z"/>
	<linearGradient id="SVGID_3_" gradientUnits="userSpaceOnUse" x1="63.6746" y1="18.9935" x2="218.7043" y2="18.9935">
		<stop  offset="0" style="stop-color:#822451"/>
		<stop  offset="1" style="stop-color:#C5332F"/>
	</linearGradient>
	<path class="st2" d="M63.7,35.2c0-10.9,0-21.6,0-32.5c0.3,0,0.5,0,0.8,0c3.7,0,7.4,0,11.1,0c3.6,0.1,7.1,0.8,10.1,3.1
		c1.6,1.2,2.9,2.6,3.8,4.3c1.9,3.2,2.6,6.7,2.3,10.4c-0.3,3.7-1.5,7-4,9.8c-2.3,2.6-5.2,4-8.6,4.7c-0.7,0.1-1.4,0.2-2,0.2
		c-4.2,0-8.4,0-12.6,0C64.3,35.2,64,35.2,63.7,35.2z M72.1,27.8c1.7-0.1,3.3-0.1,4.9-0.2c1.5-0.1,2.9-0.7,4-1.8
		c2.4-2.5,3.1-5.4,2.5-8.8c-0.4-2.2-1.5-4-3.3-5.3c-1-0.7-2.1-1.1-3.3-1.1c-1.5,0-3.1,0-4.6,0C72.1,16.2,72.1,21.9,72.1,27.8z"/>
	<linearGradient id="SVGID_4_" gradientUnits="userSpaceOnUse" x1="63.286" y1="70.8399" x2="233.3547" y2="70.8399">
		<stop  offset="0" style="stop-color:#822451"/>
		<stop  offset="1" style="stop-color:#C5332F"/>
	</linearGradient>
	<path class="st3" d="M184.5,77c2.7,0,5.4,0,8.1,0c0.2,1.5,1.2,2.3,2.6,2.7c2,0.6,4.1,0.7,6-0.3c0.7-0.4,1.3-0.9,1.4-1.7
		c0.1-0.9-0.5-2-1.4-2.3c-1.3-0.3-2.7-0.6-4.1-0.8c-2.4-0.3-4.8-0.5-7.1-1.5c-2.6-1.2-4.2-3.1-4.8-5.9c-0.7-3.1-0.3-6.1,1.6-8.8
		c1.2-1.6,2.9-2.7,4.8-3.4c2-0.8,4-1.2,6.2-1c3.7,0.2,7.1,1.2,9.7,4.1c1.6,1.8,2.4,4,2.2,6.5c-2.7,0-5.3,0-7.7,0
		c-0.4-0.8-0.7-1.6-1.2-2c-0.5-0.5-1.4-0.7-2.1-0.9c-1.6-0.4-3.1-0.1-4.5,0.7c-0.9,0.5-1.5,1.7-1.3,2.6c0.2,1.3,1.2,1.9,2.2,2.1
		c1.7,0.4,3.4,0.6,5,0.8c2.6,0.3,5.1,0.8,7.4,2.3c1.6,1.1,2.6,2.7,3,4.6c0.4,1.9,0.4,3.8-0.2,5.6c-0.8,2.3-2.2,4-4.3,5.2
		c-2.1,1.3-4.3,1.8-6.7,2.1c-3.4,0.3-6.6-0.2-9.5-1.8c-2.9-1.5-4.7-3.8-5.1-7.1c0-0.2-0.1-0.5-0.1-0.7
		C184.4,77.7,184.5,77.4,184.5,77z"/>
	<linearGradient id="SVGID_5_" gradientUnits="userSpaceOnUse" x1="65.145" y1="70.7449" x2="233.3583" y2="70.7449">
		<stop  offset="0" style="stop-color:#822451"/>
		<stop  offset="1" style="stop-color:#C5332F"/>
	</linearGradient>
	<path class="st4" d="M113.2,74.4c2.7,0,5.4,0,8.3,0c-0.2,0.9-0.3,1.7-0.5,2.5c-0.7,2.3-1.8,4.4-3.5,6.1c-2,2-4.5,3.2-7.2,3.8
		c-5.3,1.1-10.3,0.3-14.7-2.9c-2.9-2.1-4.6-5-5.5-8.4c-0.6-2.1-0.7-4.2-0.6-6.3c0.3-3.9,1.6-7.4,4.4-10.2c2.6-2.6,5.8-4.1,9.4-4.7
		c3.8-0.6,7.4-0.1,10.8,1.6c3.7,1.9,6,4.9,7,8.9c0.1,0.5,0.2,1,0.4,1.6c-2.8,0-5.5,0-8.1,0c-0.7-1-1.4-2-2.2-2.9
		c-1-1-2.2-1.5-3.6-1.7c-1.3-0.2-2.6-0.1-3.9,0.3c-2.5,0.8-4.1,2.5-4.9,4.9c-1.1,3.2-0.9,6.3,1,9c1.9,2.7,4.5,3.9,7.9,3.3
		C110.4,79,112.2,77.3,113.2,74.4z"/>
	<linearGradient id="SVGID_6_" gradientUnits="userSpaceOnUse" x1="65.4925" y1="70.7569" x2="231.4092" y2="70.7569">
		<stop  offset="0" style="stop-color:#822451"/>
		<stop  offset="1" style="stop-color:#C5332F"/>
	</linearGradient>
	<path class="st5" d="M163.6,78.7c0,2.8,0,5.5,0,8.3c-2.8,0-5.5,0-8.2,0c0-10.8,0-21.5,0-32.4c0.2,0,0.5,0,0.8,0c4.6,0,9.3,0,13.9,0
		c2.2,0,4.3,0.6,6.2,1.9c2.3,1.6,3.8,3.9,4.5,6.6c1,4,0.5,7.7-1.8,11.1c-1.8,2.6-4.3,4.1-7.4,4.4c-2.3,0.2-4.6,0.1-6.9,0.2
		C164.4,78.7,164.1,78.7,163.6,78.7z M163.5,71.2c2.1,0,4.1,0.1,6.1-0.1c0.7,0,1.4-0.6,1.9-1.1c1.2-1.2,1.3-2.8,1.2-4.4
		c-0.2-1.4-0.8-2.8-2.2-3.3c-0.8-0.3-1.6-0.2-2.5-0.2c-1.5,0-2.9,0-4.5,0C163.5,65.1,163.5,68.1,163.5,71.2z"/>
	<linearGradient id="SVGID_7_" gradientUnits="userSpaceOnUse" x1="66.7993" y1="19.2718" x2="232.8368" y2="19.2718">
		<stop  offset="0" style="stop-color:#822451"/>
		<stop  offset="1" style="stop-color:#C5332F"/>
	</linearGradient>
	<path class="st6" d="M132.5,2.8c2.7,0,5.3,0,8,0c0,0.3,0,0.6,0,0.9c0,6.7,0,13.4,0,20.2c0,2.3,1.4,3.7,3.2,4.1
		c1.8,0.4,3.5,0.3,5.1-0.8c0.9-0.6,1.4-1.5,1.4-2.6c0-6.9,0-13.8,0-20.8c0-0.3,0-0.6,0-1c2.7,0,5.4,0,8.1,0c0,0.3,0,0.5,0,0.8
		c0,6.9,0,13.8,0,20.8c0,3.2-1.1,5.9-3.5,8.1c-1.9,1.7-4.2,2.7-6.8,3.1c-2.5,0.4-4.9,0.3-7.3-0.5c-4.1-1.3-7.1-3.9-8.1-8.3
		c-0.1-0.6-0.2-1.3-0.2-2c0-7,0-14,0-21.1C132.5,3.4,132.5,3.1,132.5,2.8z"/>
	<linearGradient id="SVGID_8_" gradientUnits="userSpaceOnUse" x1="66.2269" y1="71.0106" x2="232.9823" y2="71.0106">
		<stop  offset="0" style="stop-color:#822451"/>
		<stop  offset="1" style="stop-color:#C5332F"/>
	</linearGradient>
	<path class="st7" d="M124.8,54.6c2.8,0,5.4,0,8.1,0c0,0.3,0,0.6,0,0.9c0,6.8,0,13.6,0,20.4c0,1.7,0.8,2.8,2.3,3.5
		c2,0.9,4,0.8,5.9-0.5c1-0.7,1.5-1.7,1.5-2.9c0-6.8,0-13.6,0-20.4c0-0.3,0-0.6,0-0.9c2.7,0,5.3,0,8,0c0,0.3,0,0.6,0,0.9
		c0,7.1,0,14.1,0,21.2c0,2.2-0.8,4.2-2.1,6c-2,2.6-4.7,3.9-7.8,4.5c-3.5,0.6-6.8,0.2-10-1.5c-3.1-1.6-5-4.2-5.7-7.6
		c-0.1-0.7-0.2-1.4-0.2-2c0-6.8,0-13.7,0-20.5C124.8,55.2,124.8,54.9,124.8,54.6z"/>
	<linearGradient id="SVGID_9_" gradientUnits="userSpaceOnUse" x1="65.1821" y1="18.9965" x2="232.8949" y2="18.9965">
		<stop  offset="0" style="stop-color:#822451"/>
		<stop  offset="1" style="stop-color:#C5332F"/>
	</linearGradient>
	<path class="st8" d="M224,14.8c3.7,0,7.3,0,10.9,0c0,2.5,0,5,0,7.5c-3.6,0-7.2,0-10.9,0c0,1.8,0,3.6,0,5.5c4.1,0,8.2,0,12.4,0
		c0,2.5,0,4.9,0,7.4c-6.9,0-13.8,0-20.7,0c0-10.8,0-21.6,0-32.4c6.7,0,13.4,0,20.2,0c0,2.5,0,4.9,0,7.5c-4,0-7.9,0-11.9,0
		C224,11.8,224,13.2,224,14.8z"/>
	<linearGradient id="SVGID_10_" gradientUnits="userSpaceOnUse" x1="66.113" y1="18.9999" x2="232.1917" y2="18.9999">
		<stop  offset="0" style="stop-color:#822451"/>
		<stop  offset="1" style="stop-color:#C5332F"/>
	</linearGradient>
	<path class="st9" d="M200.7,27.7c4,0,7.8,0,11.7,0c0,2.5,0,5,0,7.5c-6.7,0-13.3,0-20.1,0c0-10.8,0-21.5,0-32.4c2.7,0,5.5,0,8.3,0
		C200.7,11.1,200.7,19.3,200.7,27.7z"/>
	
		<linearGradient id="SVGID_11_" gradientUnits="userSpaceOnUse" x1="66.0644" y1="45.5375" x2="233.8532" y2="45.5375" gradientTransform="matrix(0.9998 2.177825e-02 -2.177825e-02 0.9998 1.0812 -4.3703)">
		<stop  offset="0" style="stop-color:#822451"/>
		<stop  offset="1" style="stop-color:#C5332F"/>
	</linearGradient>
	<path class="st10" d="M172.3,48.2c-0.7-2.2-1.4-4.3-2.1-6.5c0.8-0.3,1,0.1,1.2,0.8c0.4,1.4,0.8,2.8,1.3,4.3
		c0.6-1.7,1.1-3.2,1.6-4.7c0.2-0.5,0.4-0.7,0.9-0.5c0.5,1.6,1,3.3,1.6,5.2c0.6-1.6,1.1-2.9,1.6-4.3c0.2-0.6,0.5-0.9,1.2-0.6
		c-0.6,1.6-1.2,3.1-1.8,4.7c-0.1,0.3-0.3,0.7-0.4,1c-0.1,0.6-0.4,0.8-1,0.6c-0.5-1.6-1-3.2-1.6-5c-0.3,0.7-0.5,1.2-0.7,1.8
		c-0.3,0.8-0.6,1.7-0.9,2.5C173,48.3,173,48.3,172.3,48.2z"/>
	<linearGradient id="SVGID_12_" gradientUnits="userSpaceOnUse" x1="65.9645" y1="45.038" x2="233.855" y2="45.038">
		<stop  offset="0" style="stop-color:#822451"/>
		<stop  offset="1" style="stop-color:#C5332F"/>
	</linearGradient>
	<path class="st11" d="M212.4,44.6c8,0,15.9,0,23.9,0c0,0.3,0,0.5,0,0.8c-8,0-15.9,0-23.9,0C212.4,45.2,212.4,44.9,212.4,44.6z"/>
	<linearGradient id="SVGID_13_" gradientUnits="userSpaceOnUse" x1="63.6733" y1="45.0379" x2="235.1758" y2="45.0379">
		<stop  offset="0" style="stop-color:#822451"/>
		<stop  offset="1" style="stop-color:#C5332F"/>
	</linearGradient>
	<path class="st12" d="M63.7,45.4c0-0.3,0-0.5,0-0.8c8,0,15.9,0,24,0c0,0.2,0,0.5,0,0.8C79.7,45.4,71.7,45.4,63.7,45.4z"/>
	<linearGradient id="SVGID_14_" gradientUnits="userSpaceOnUse" x1="64.2933" y1="44.9704" x2="233.5103" y2="44.9704">
		<stop  offset="0" style="stop-color:#822451"/>
		<stop  offset="1" style="stop-color:#C5332F"/>
	</linearGradient>
	<path class="st13" d="M134.8,44.5c-0.7-1.5-0.5-2.2,0.5-2.7c0.8-0.4,2-0.1,2.3,0.6c0.4,0.8,0.2,1.8-1.2,2.5
		c0.5,0.4,0.9,0.7,1.4,1.1c0.2-0.3,0.4-0.7,0.7-1.2c0.2,0.1,0.5,0.2,0.7,0.4c-0.3,0.5-0.6,1-0.9,1.7c0.4,0.3,0.8,0.6,1.2,0.9
		c-0.5,0.7-0.8,0.9-1.3,0.3c-0.3-0.4-0.6-0.5-1.1-0.1c-0.7,0.6-2.1,0.6-2.9,0.1c-0.8-0.5-1-1.9-0.3-2.5
		C134.1,45.1,134.5,44.8,134.8,44.5z M137.2,47c-0.5-0.6-0.9-1.1-1.4-1.6c-0.1-0.1-0.3-0.2-0.5-0.2c-0.5,0.1-1,0.8-0.9,1.4
		c0.1,0.6,0.6,1,1.1,0.9C136.1,47.5,136.6,47.2,137.2,47z M135.8,44.3c0.6-0.1,1.1-0.4,1.1-1c0-0.3-0.3-0.7-0.5-0.8
		c-0.2-0.1-0.7,0-0.9,0.2C135.1,43.2,135.4,43.8,135.8,44.3z"/>
	<linearGradient id="SVGID_15_" gradientUnits="userSpaceOnUse" x1="66.8537" y1="45.0148" x2="233.1163" y2="45.0148">
		<stop  offset="0" style="stop-color:#822451"/>
		<stop  offset="1" style="stop-color:#C5332F"/>
	</linearGradient>
	<path class="st14" d="M163.4,48.3c0-2.2,0-4.3,0-6.6c1.2,0.1,2.4,0,3.6,0.2c1.6,0.4,2.3,1.6,2.2,3.6c-0.1,1.3-1.2,2.3-2.6,2.6
		c-0.2,0-0.4,0.1-0.6,0.1C165.1,48.3,164.3,48.3,163.4,48.3z M164.3,47.4c0.7,0,1.3,0,1.9,0c1.7-0.1,2.7-2.2,1.8-3.7
		c-0.6-1.1-2.1-1.5-3.7-1.1C164.3,44.2,164.3,45.8,164.3,47.4z"/>
	<linearGradient id="SVGID_16_" gradientUnits="userSpaceOnUse" x1="63.6831" y1="44.9553" x2="234.5503" y2="44.9553">
		<stop  offset="0" style="stop-color:#822451"/>
		<stop  offset="1" style="stop-color:#C5332F"/>
	</linearGradient>
	<path class="st15" d="M102.2,48.3c-1.7,0.3-3.3-1.4-3.3-3.3c0-1.7,1.5-3.4,3.5-3.4c1.8,0,3.2,1.5,3.2,3.4
		C105.6,46.8,104.3,48.5,102.2,48.3z M99.8,44.9c-0.1,1.6,1.1,2.6,2.4,2.6c1.5,0,2.4-1.2,2.5-2.6c0.1-1.3-1.2-2.6-2.5-2.6
		C101,42.4,99.8,43.5,99.8,44.9z"/>
	<linearGradient id="SVGID_17_" gradientUnits="userSpaceOnUse" x1="66.998" y1="45.0457" x2="234.6988" y2="45.0457">
		<stop  offset="0" style="stop-color:#822451"/>
		<stop  offset="1" style="stop-color:#C5332F"/>
	</linearGradient>
	<path class="st16" d="M156.3,41.8c0.6-0.1,0.9,0,1.2,0.5c1,1.4,2.2,2.7,3.3,4.2c0-1.7,0-3.2,0-4.7c0.3,0,0.5,0,0.8,0
		c0,2.1,0,4.3,0,6.4c-0.9,0.3-1-0.5-1.4-0.9c-1.1-1.3-2.1-2.6-3.1-3.9c0,0-0.1-0.1-0.2-0.1c0,1.7,0,3.3,0,5c-0.3,0-0.5,0-0.7,0
		C156.3,46.1,156.3,44,156.3,41.8z"/>
	<linearGradient id="SVGID_18_" gradientUnits="userSpaceOnUse" x1="64.5527" y1="45.0249" x2="234.5453" y2="45.0249">
		<stop  offset="0" style="stop-color:#822451"/>
		<stop  offset="1" style="stop-color:#C5332F"/>
	</linearGradient>
	<path class="st17" d="M125.2,41.8c1.6,0,3.1,0,4.6,0c0,0.2,0,0.4,0,0.7c-1.3,0-2.5,0-3.8,0c0,0.7,0,1.4,0,2.1c1.1,0,2.3,0,3.5,0
		c0,0.3,0,0.5,0,0.7c-1.2,0-2.3,0-3.5,0c0,0.7,0,1.4,0,2.1c1.3,0,2.6,0,3.9,0c0,0.3,0,0.6,0,0.8c-1.6,0-3.1,0-4.8,0
		C125.2,46.1,125.2,44,125.2,41.8z"/>
	<linearGradient id="SVGID_19_" gradientUnits="userSpaceOnUse" x1="65.7263" y1="45.0371" x2="233.8507" y2="45.0371">
		<stop  offset="0" style="stop-color:#822451"/>
		<stop  offset="1" style="stop-color:#C5332F"/>
	</linearGradient>
	<path class="st18" d="M201.9,47.4c0,0.3,0,0.6,0,0.8c-1.6,0-3.2,0-4.8,0c0-2.1,0-4.2,0-6.4c1.5,0,3,0,4.6,0c0,0.2,0,0.4,0.1,0.7
		c-1.3,0-2.5,0-3.8,0c0,0.7,0,1.4,0,2.1c1.2,0,2.3,0,3.5,0c0,0.3,0,0.5,0,0.7c-1.2,0-2.3,0-3.5,0c0,0.7,0,1.4,0,2.1
		C199.3,47.4,200.6,47.4,201.9,47.4z"/>
	<linearGradient id="SVGID_20_" gradientUnits="userSpaceOnUse" x1="64.0973" y1="45.0371" x2="236.931" y2="45.0371">
		<stop  offset="0" style="stop-color:#822451"/>
		<stop  offset="1" style="stop-color:#C5332F"/>
	</linearGradient>
	<path class="st19" d="M119,48.3c0-2.2,0-4.3,0-6.4c1.6,0,3.1,0,4.6,0c0,0.2,0,0.4,0,0.7c-1.2,0-2.5,0-3.8,0c0,0.7,0,1.4,0,2.1
		c1.1,0,2.2,0,3.3,0c0,0.3,0,0.5,0,0.7c-1.1,0-2.2,0-3.3,0c0,0.7,0,1.4,0,2.1c1.3,0,2.5,0,3.8,0c0,0.3,0,0.6,0,0.8
		C122.2,48.3,120.6,48.3,119,48.3z"/>
	<linearGradient id="SVGID_21_" gradientUnits="userSpaceOnUse" x1="67.5955" y1="44.9304" x2="233.5878" y2="44.9304">
		<stop  offset="0" style="stop-color:#822451"/>
		<stop  offset="1" style="stop-color:#C5332F"/>
	</linearGradient>
	<path class="st20" d="M155.1,48.2c-0.7,0.2-1.1,0-1.2-0.6c-0.2-0.7-0.6-1.3-1.5-1.1c-0.2,0-0.4,0-0.6,0c-1.1-0.1-2.1,0-2.3,1.4
		c-0.1,0.2-0.6,0.4-0.9,0.6c-0.1-0.1-0.1-0.1-0.2-0.2c0.5-1.1,1-2.1,1.5-3.2c0.4-1,0.8-1.9,1.3-2.8c0.2-0.3,0.6-0.4,0.9-0.7
		C153.1,43.8,154.1,46,155.1,48.2z M151.7,42.8c-0.5,1-0.9,2-1.3,2.9c0.9,0,1.7,0,2.6,0C152.6,44.7,152.2,43.8,151.7,42.8z"/>
	<linearGradient id="SVGID_22_" gradientUnits="userSpaceOnUse" x1="66.6636" y1="45.0272" x2="233.8618" y2="45.0272">
		<stop  offset="0" style="stop-color:#822451"/>
		<stop  offset="1" style="stop-color:#C5332F"/>
	</linearGradient>
	<path class="st21" d="M195.4,48.3c-0.3,0-0.5,0-0.8,0c0-1,0-1.9,0-2.9c-1.2,0-2.4,0-3.6,0c0,1,0,1.9,0,2.9c-0.3,0-0.6,0-0.9,0
		c0-1.1,0-2.1,0-3.2c0-1.1,0-2.1,0-3.2c0.3,0,0.5,0,0.8,0c0,0.9,0,1.8,0,2.7c1.2,0,2.3,0,3.6,0c0-0.9,0-1.8,0-2.7c0.3,0,0.6,0,0.8,0
		C195.4,43.9,195.4,46.1,195.4,48.3z"/>
	<linearGradient id="SVGID_23_" gradientUnits="userSpaceOnUse" x1="66.5053" y1="44.9623" x2="234.094" y2="44.9623">
		<stop  offset="0" style="stop-color:#822451"/>
		<stop  offset="1" style="stop-color:#C5332F"/>
	</linearGradient>
	<path class="st22" d="M207.7,42.6c-0.2,0.2-0.4,0.4-0.6,0.5c-0.5-0.2-1-0.5-1.6-0.6c-0.3-0.1-0.8,0-1.1,0.2
		c-0.8,0.4-0.7,1.2,0.1,1.5c0.6,0.3,1.2,0.4,1.8,0.6c1.2,0.4,1.6,1,1.4,2.1c-0.1,0.7-1.1,1.4-2,1.4c-0.9,0.1-1.7-0.1-2.4-0.6
		c-0.2-0.1-0.4-0.5-0.3-0.7c0.2-0.4,0.5-0.2,0.8,0c0.7,0.5,1.5,0.9,2.4,0.5c0.3-0.1,0.6-0.5,0.6-0.9c0-0.3-0.3-0.7-0.5-0.8
		c-0.6-0.3-1.2-0.4-1.9-0.6c-0.9-0.3-1.5-1-1.4-1.8c0-0.8,0.7-1.6,1.6-1.7C205.5,41.6,206.6,41.6,207.7,42.6z"/>
	<linearGradient id="SVGID_24_" gradientUnits="userSpaceOnUse" x1="64.5543" y1="44.9617" x2="233.6161" y2="44.9617">
		<stop  offset="0" style="stop-color:#822451"/>
		<stop  offset="1" style="stop-color:#C5332F"/>
	</linearGradient>
	<path class="st23" d="M147.5,42.4c-0.2,0.2-0.3,0.5-0.5,0.6c-0.5-0.2-1-0.4-1.5-0.6c-0.7-0.3-1.2,0.1-1.6,0.6
		c-0.3,0.3,0.1,1,0.7,1.2c0.5,0.2,1.1,0.3,1.7,0.5c1.1,0.4,1.5,1.1,1.4,2.1c-0.1,0.8-1,1.4-2,1.4c-0.9,0-1.8-0.1-2.6-0.7
		c-0.2-0.1-0.3-0.5-0.2-0.7c0.1-0.4,0.5-0.2,0.7-0.1c0.7,0.5,1.5,1,2.4,0.5c0.3-0.2,0.7-0.6,0.7-0.9c0-0.3-0.3-0.7-0.6-0.8
		c-0.6-0.3-1.2-0.4-1.8-0.6c-0.9-0.3-1.5-1-1.4-1.8c0.1-1,0.9-1.6,2-1.7C145.8,41.6,146.6,41.9,147.5,42.4z"/>
	<linearGradient id="SVGID_25_" gradientUnits="userSpaceOnUse" x1="66.5883" y1="44.9739" x2="235.1222" y2="44.9739">
		<stop  offset="0" style="stop-color:#822451"/>
		<stop  offset="1" style="stop-color:#C5332F"/>
	</linearGradient>
	<path class="st24" d="M97.6,46.7c0.2,0.2,0.3,0.4,0.4,0.6c-1.3,1.5-4.1,1.4-5.2-0.1c-1-1.4-0.9-3.4,0.4-4.7c1.3-1.3,4-1.1,4.9,0.3
		c-0.2,0.1-0.3,0.3-0.6,0.5c-1.4-1-2.8-1.4-4,0.2c-0.7,0.9-0.6,2.3,0.1,3C94.7,47.8,95.3,47.9,97.6,46.7z"/>
	<linearGradient id="SVGID_26_" gradientUnits="userSpaceOnUse" x1="67.1949" y1="44.9675" x2="233.1702" y2="44.9675">
		<stop  offset="0" style="stop-color:#822451"/>
		<stop  offset="1" style="stop-color:#C5332F"/>
	</linearGradient>
	<path class="st25" d="M188.5,46.6c0.2,0.2,0.3,0.3,0.5,0.5c-1.4,1.9-5.1,1.5-5.8-1.1c-0.4-1.4,0.1-3.1,1.2-3.9
		c1.1-0.7,2.9-0.8,4.1,0.2c0.2,0.1,0.1,0.5,0.2,0.7c-0.2,0-0.6,0.1-0.7,0c-0.9-0.6-2-0.8-2.8-0.3c-0.9,0.6-1.4,1.8-1.2,2.8
		c0.2,1,1.2,2.1,2.2,2c0.8,0,1.6-0.4,2.4-0.7C188.5,46.8,188.5,46.7,188.5,46.6z"/>
	<linearGradient id="SVGID_27_" gradientUnits="userSpaceOnUse" x1="65.684" y1="45.0372" x2="235.4605" y2="45.0372">
		<stop  offset="0" style="stop-color:#822451"/>
		<stop  offset="1" style="stop-color:#C5332F"/>
	</linearGradient>
	<path class="st26" d="M113.8,45.5c0,1,0,1.9,0,2.8c-0.3,0-0.6,0-0.8,0c0-2.1,0-4.2,0-6.4c1.5,0,3.1,0,4.6,0c0,0.2,0,0.4,0.1,0.7
		c-1.3,0-2.5,0-3.8,0c0,0.7,0,1.4,0,2.1c1.2,0,2.3,0,3.5,0c0,0.3,0,0.6,0,0.9C116.2,45.5,115,45.5,113.8,45.5z"/>
	<linearGradient id="SVGID_28_" gradientUnits="userSpaceOnUse" x1="63.9396" y1="45.0598" x2="236.3266" y2="45.0598">
		<stop  offset="0" style="stop-color:#822451"/>
		<stop  offset="1" style="stop-color:#C5332F"/>
	</linearGradient>
	<path class="st27" d="M111.3,44.6c0,0.3,0,0.6,0,0.9c-1.1,0-2.2,0-3.4,0c0,1,0,1.9,0,2.8c-0.3,0-0.6,0-0.8,0c0-2.2,0-4.3,0-6.5
		c1.5,0,3.1,0,4.6,0c0,0.2,0,0.4,0,0.7c-1.3,0-2.5,0-3.8,0c0,0.7,0,1.4,0,2.1C109,44.6,110.1,44.6,111.3,44.6z"/>
	<linearGradient id="SVGID_29_" gradientUnits="userSpaceOnUse" x1="66.6665" y1="45.0415" x2="234.3395" y2="45.0415">
		<stop  offset="0" style="stop-color:#822451"/>
		<stop  offset="1" style="stop-color:#C5332F"/>
	</linearGradient>
	<path class="st28" d="M180.8,41.8c0.2,0,0.3,0,0.4,0c0.1,0,0.2,0,0.3,0c0,2.1,0,4.3,0,6.4c-0.2,0-0.5,0-0.8,0
		C180.8,46.1,180.8,44,180.8,41.8z"/>
</g>
</svg>
