<?xml version="1.0" encoding="utf-8"?>
<!-- Generator: Adobe Illustrator 23.1.1, SVG Export Plug-In . SVG Version: 6.00 Build 0)  -->
<svg version="1.1" id="Слой_1" xmlns="http://www.w3.org/2000/svg" xmlns:xlink="http://www.w3.org/1999/xlink" x="0px" y="0px"
	 viewBox="0 0 300 90" style="enable-background:new 0 0 300 90;" xml:space="preserve">
<style type="text/css">
	.st0{fill:url(#SVGID_1_);}
	.st1{fill:url(#SVGID_2_);}
	.st2{fill:url(#SVGID_3_);}
	.st3{fill:url(#SVGID_4_);}
	.st4{fill:url(#SVGID_5_);}
	.st5{fill:url(#SVGID_6_);}
	.st6{fill:url(#SVGID_7_);}
	.st7{fill:url(#SVGID_8_);}
</style>
<g>
	<g>
		<linearGradient id="SVGID_1_" gradientUnits="userSpaceOnUse" x1="73.5981" y1="44.7853" x2="226.0215" y2="44.7853">
			<stop  offset="0" style="stop-color:#822451"/>
			<stop  offset="1" style="stop-color:#C5332F"/>
		</linearGradient>
		<path class="st0" d="M110.6,32.9v5.7h-4.3v18.1h-5.9V38.6H96v-5.7H110.6z"/>
		<linearGradient id="SVGID_2_" gradientUnits="userSpaceOnUse" x1="74.1194" y1="48.3479" x2="225.6888" y2="48.3479">
			<stop  offset="0" style="stop-color:#822451"/>
			<stop  offset="1" style="stop-color:#C5332F"/>
		</linearGradient>
		<path class="st1" d="M128.5,48.3c0,4.8-4,8.7-9.1,8.7c-5,0-9.1-3.8-9.1-8.7s4-8.7,9.1-8.7C124.4,39.7,128.5,43.5,128.5,48.3z
			 M119.4,52c2,0,3.6-1.7,3.6-3.6c0-2-1.7-3.6-3.6-3.6c-2,0-3.6,1.7-3.6,3.6C115.8,50.3,117.4,52,119.4,52z"/>
		<linearGradient id="SVGID_3_" gradientUnits="userSpaceOnUse" x1="74.4801" y1="51.741" x2="225.0678" y2="51.741">
			<stop  offset="0" style="stop-color:#822451"/>
			<stop  offset="1" style="stop-color:#C5332F"/>
		</linearGradient>
		<path class="st2" d="M130.7,49.2c0-5.8,3.3-8.1,5.5-8.9c1.1-0.4,2.3-0.5,3.5-0.5c1.5,0,3.1,0.3,4.4,1c2.9,1.4,4.9,4.6,4.9,8
			c0,1.5-0.4,3-1.1,4.3c-1.2,2.1-3.7,4-7.4,4c-1.1,0-1.9-0.2-3-0.6v-4.9c0.8,0.3,1.5,0.5,2.2,0.5c2.5,0,3.8-1.5,3.8-3.4
			c0-2.3-1.7-3.8-3.8-3.8c-2,0-3.7,1.4-3.7,4.5v14.6h-5.4V49.2z"/>
		<linearGradient id="SVGID_4_" gradientUnits="userSpaceOnUse" x1="74.3601" y1="44.7853" x2="226.3317" y2="44.7853">
			<stop  offset="0" style="stop-color:#822451"/>
			<stop  offset="1" style="stop-color:#C5332F"/>
		</linearGradient>
		<path class="st3" d="M169,40.6c-1.2-1.2-3-2.3-5.3-2.3c-3.6,0-6.6,2.9-6.6,6.5s3,6.5,6.6,6.5c2.9,0,5.3-1.8,5.7-4.1H163v-5.4h12.4
			v2.7c0,5.3-2.6,8.6-5.4,10.4c-1.9,1.3-4.3,2-6.6,2c-2.1,0-4.3-0.6-6.1-1.6c-3.8-2.2-6.1-6.2-6.1-10.6c0-4.3,2.3-8.4,6.1-10.6
			c1.9-1.1,4-1.6,6.1-1.6c1.3,0,2.5,0.1,3.7,0.5c1.6,0.4,3.9,1.4,6,3.4L169,40.6z"/>
		<linearGradient id="SVGID_5_" gradientUnits="userSpaceOnUse" x1="74.1972" y1="48.3479" x2="222.9528" y2="48.3479">
			<stop  offset="0" style="stop-color:#822451"/>
			<stop  offset="1" style="stop-color:#C5332F"/>
		</linearGradient>
		<path class="st4" d="M195.2,52.2c-2,3-5.2,4.8-8.7,4.8c-5.4,0-9.2-3.9-9.2-8.8c0-4.5,3.5-8.5,9-8.5c4.3,0,7.4,2.5,8.7,6.1L186,51
			l-1.7-3l4.7-2.8c-0.8-0.9-1.8-1.1-2.5-1.1c-2.3,0-3.7,1.9-3.7,3.9c0,2,1.5,4.1,4.2,4.1c2.1,0,3.9-1.3,4.9-3.1L195.2,52.2z"/>
		<linearGradient id="SVGID_6_" gradientUnits="userSpaceOnUse" x1="74.0796" y1="48.3479" x2="225.3262" y2="48.3479">
			<stop  offset="0" style="stop-color:#822451"/>
			<stop  offset="1" style="stop-color:#C5332F"/>
		</linearGradient>
		<path class="st5" d="M210.4,49.5c0-1.8-0.3-3.5-1.9-4.4c-0.5-0.3-1.2-0.4-1.8-0.4c-0.7,0-1.3,0.2-1.9,0.5
			c-1.1,0.6-1.8,1.8-1.8,3.2c0,1.1,0.5,2.3,1.8,3.1c0.6,0.3,1.3,0.5,1.9,0.5c0.7,0,1.6-0.2,2.3-0.4v4.9c-1.1,0.3-1.9,0.6-3,0.6
			c-4.2,0-8.5-3-8.5-8.3c0-3.5,2-6.6,4.9-8c1.4-0.7,2.9-1,4.4-1c1.2,0,2.4,0.1,3.5,0.5c2.9,1.1,5.5,3.9,5.5,8.8v7.6h-5.4V49.5z"/>
		<linearGradient id="SVGID_7_" gradientUnits="userSpaceOnUse" x1="74.3926" y1="48.2631" x2="225.1507" y2="48.2631">
			<stop  offset="0" style="stop-color:#822451"/>
			<stop  offset="1" style="stop-color:#C5332F"/>
		</linearGradient>
		<path class="st6" d="M218.5,56.7V40h4.8v2.6c0.7-2.5,2.9-2.7,4.4-2.7h0.3V45h-0.8c-1.2,0-3.3,0.1-3.3,3v8.7H218.5z"/>
	</g>
	<linearGradient id="SVGID_8_" gradientUnits="userSpaceOnUse" x1="71.9232" y1="45" x2="224.9478" y2="45">
		<stop  offset="0" style="stop-color:#822451"/>
		<stop  offset="1" style="stop-color:#C5332F"/>
	</linearGradient>
	<path class="st7" d="M111.2,20.5c2.9,0,5.5,0.5,8.1,1.3c0.4,0.2,0.9-0.2,0.9-0.7v-3.8c0-0.5-0.1-1-0.2-1.5l0,0
		c-0.2-0.8-0.3-1.5-0.5-2.3c-0.4-1.8-0.9-3.7-1.3-5.5c-0.4-1.6-1.2-2.5-3-2.4c-2.8,0.1-5.6,0-8.4,0c-1.4,0-2.2,0.7-2.5,2
		c-0.7,2.7-1.4,5.5-2,8.2c-0.1,0.4-0.3,0.5-0.8,0.7c-1.3,0.4-2.5,0.9-3.7,1.6c-0.5,0.3-0.8,0.3-1.2,0.1c-2-1.3-4.1-2.5-6.1-3.7
		c-1.1-0.7-2.2-0.5-3.1,0.3c-2.2,2.1-4.3,4.2-6.4,6.4c-0.5,0.5-0.9,1.2-0.8,1.9c0.1,0.5,0.3,1,0.5,1.4c1.2,2.1,2.5,4.1,3.7,6.2
		c0.1,0.2,0.1,0.4,0,0.6c-0.5,1.3-1,2.5-1.6,3.7c-0.2,0.3-0.2,0.8-0.7,0.9c-1.4,0.3-2.7,0.7-4,1c-1.5,0.4-3,0.7-4.4,1.1
		c-1.2,0.3-1.8,1.2-1.8,2.4c0,3,0,6,0,9c0,0.3,0.1,0.7,0.2,1c0.4,1,1.4,1.3,2.4,1.5c2.6,0.6,5.2,1.3,7.8,1.9
		c0.2,0.1,0.4,0.3,0.5,0.5c0.6,1.3,1.2,2.7,1.7,4.1c0.2,0.3,0.2,0.6-0.1,0.9c-1.3,2.1-2.5,4.1-3.7,6.2C80,66.9,80,67.9,81.2,69
		c2,2,4.1,4,6,6c1.2,1.2,2.1,1.2,3.4,0.4c2.1-1.3,4.2-2.5,6.3-3.7c0.2-0.1,0.5-0.2,0.7-0.1c1.4,0.5,2.7,1.2,4.1,1.7
		c0.3,0.1,0.5,0.3,0.5,0.7c0.7,2.7,1.4,5.5,2,8.3c0.3,1.3,1.2,2,2.5,2c3,0,5.9,0,8.8,0c1.3,0,2.2-0.7,2.5-2c0.2-0.8,0.4-1.6,0.6-2.5
		c0.4-1.9,0.9-3.9,1.4-5.8l0.1-0.4c0.1-0.2,0.1-0.7,0.1-0.9v-3.1c0-0.6-0.6-1-1.2-0.8c-2.5,0.8-5.1,1.3-7.8,1.3
		c-14,0-25.3-11.7-24.7-25.9C87.2,31.1,98.1,20.6,111.2,20.5z"/>
</g>
</svg>
